HIERARCHY
ROOT hip
{
  OFFSET 0 0 0
  CHANNELS 6 Xposition Yposition Zposition Zrotation Yrotation Xrotation
  JOINT abdomen
  {
    OFFSET 0 20.6881 -0.73152
    CHANNELS 3 Zrotation Xrotation Yrotation
    JOINT chest
    {
      OFFSET 0 11.7043 -0.48768
      CHANNELS 3 Zrotation Xrotation Yrotation
      JOINT neck
      {
        OFFSET 0 22.1894 -2.19456
        CHANNELS 3 Zrotation Xrotation Yrotation
        JOINT head
        {
          OFFSET -0.24384 7.07133 1.2192
          CHANNELS 3 Zrotation Xrotation Yrotation
          JOINT leftEye
          {
            OFFSET 4.14528 8.04674 8.04672
            CHANNELS 3 Zrotation Xrotation Yrotation
            End Site
            {
              OFFSET 1 0 0
            }
          }
          JOINT rightEye
          {
            OFFSET -3.6576 8.04674 8.04672
            CHANNELS 3 Zrotation Xrotation Yrotation
            End Site
            {
              OFFSET 1 0 0
            }
          }
        }
      }
      JOINT rCollar
      {
        OFFSET -2.68224 19.2634 -4.8768
        CHANNELS 3 Zrotation Xrotation Yrotation
        JOINT rShldr
        {
          OFFSET -8.77824 -1.95073 1.46304
          CHANNELS 3 Zrotation Xrotation Yrotation
          JOINT rForeArm
          {
            OFFSET -28.1742 -1.7115 0.48768
            CHANNELS 3 Zrotation Xrotation Yrotation
            JOINT rHand
            {
              OFFSET -22.5879 0.773209 7.07136
              CHANNELS 3 Zrotation Xrotation Yrotation
              JOINT rThumb1
              {
                OFFSET -1.2192 -0.487915 3.41376
                CHANNELS 3 Zrotation Xrotation Yrotation
                JOINT rThumb2
                {
                  OFFSET -3.37035 -0.52449 3.41376
                  CHANNELS 3 Zrotation Xrotation Yrotation
                  End Site
                  {
                    OFFSET -1.78271 -1.18214 1.43049
                  }
                }
              }
              JOINT rIndex1
              {
                OFFSET -7.75947 0.938293 5.60832
                CHANNELS 3 Zrotation Xrotation Yrotation
                JOINT rIndex2
                {
                  OFFSET -2.54057 -0.884171 1.56538
                  CHANNELS 3 Zrotation Xrotation Yrotation
                  End Site
                  {
                    OFFSET -1.62519 -0.234802 1.16502
                  }
                }
              }
              JOINT rMid1
              {
                OFFSET -8.24714 1.18213 3.41376
                CHANNELS 3 Zrotation Xrotation Yrotation
                JOINT rMid2
                {
                  OFFSET -3.10165 -0.590103 1.0647
                  CHANNELS 3 Zrotation Xrotation Yrotation
                  End Site
                  {
                    OFFSET -2.48547 -0.328903 0.83742
                  }
                }
              }
              JOINT rRing1
              {
                OFFSET -8.82822 0.546677 1.51678
                CHANNELS 3 Zrotation Xrotation Yrotation
                JOINT rRing2
                {
                  OFFSET -2.60934 -0.819778 -0.0198488
                  CHANNELS 3 Zrotation Xrotation Yrotation
                  End Site
                  {
                    OFFSET -2.33842 -0.294052 0.168128
                  }
                }
              }
              JOINT rPinky1
              {
                OFFSET -8.27202 -0.0477905 -0.4584
                CHANNELS 3 Zrotation Xrotation Yrotation
                JOINT rPinky2
                {
                  OFFSET -1.82734 -0.647385 -0.700984
                  CHANNELS 3 Zrotation Xrotation Yrotation
                  End Site
                  {
                    OFFSET -1.69225 -0.51767 -0.607171
                  }
                }
              }
            }
          }
        }
      }
      JOINT lCollar
      {
        OFFSET 2.68224 19.2634 -4.8768
        CHANNELS 3 Zrotation Xrotation Yrotation
        JOINT lShldr
        {
          OFFSET 8.77824 -1.95073 1.46304
          CHANNELS 3 Zrotation Xrotation Yrotation
          JOINT lForeArm
          {
            OFFSET 28.1742 -1.7115 0.48768
            CHANNELS 3 Zrotation Xrotation Yrotation
            JOINT lHand
            {
              OFFSET 22.5879 0.773209 7.07136
              CHANNELS 3 Zrotation Xrotation Yrotation
              JOINT lThumb1
              {
                OFFSET 1.2192 -0.487915 3.41376
                CHANNELS 3 Zrotation Xrotation Yrotation
                JOINT lThumb2
                {
                  OFFSET 3.37035 -0.52449 3.41376
                  CHANNELS 3 Zrotation Xrotation Yrotation
                  End Site
                  {
                    OFFSET 1.78271 -1.18214 1.43049
                  }
                }
              }
              JOINT lIndex1
              {
                OFFSET 7.75947 0.938293 5.60832
                CHANNELS 3 Zrotation Xrotation Yrotation
                JOINT lIndex2
                {
                  OFFSET 2.54057 -0.884171 1.56538
                  CHANNELS 3 Zrotation Xrotation Yrotation
                  End Site
                  {
                    OFFSET 1.62519 -0.234802 1.16502
                  }
                }
              }
              JOINT lMid1
              {
                OFFSET 8.24714 1.18213 3.41376
                CHANNELS 3 Zrotation Xrotation Yrotation
                JOINT lMid2
                {
                  OFFSET 3.10165 -0.590103 1.0647
                  CHANNELS 3 Zrotation Xrotation Yrotation
                  End Site
                  {
                    OFFSET 2.48547 -0.328903 0.83742
                  }
                }
              }
              JOINT lRing1
              {
                OFFSET 8.82822 0.546677 1.51678
                CHANNELS 3 Zrotation Xrotation Yrotation
                JOINT lRing2
                {
                  OFFSET 2.60934 -0.819778 -0.0198488
                  CHANNELS 3 Zrotation Xrotation Yrotation
                  End Site
                  {
                    OFFSET 2.33842 -0.294052 0.168128
                  }
                }
              }
              JOINT lPinky1
              {
                OFFSET 8.27202 -0.0477905 -0.4584
                CHANNELS 3 Zrotation Xrotation Yrotation
                JOINT lPinky2
                {
                  OFFSET 1.82734 -0.647385 -0.700984
                  CHANNELS 3 Zrotation Xrotation Yrotation
                  End Site
                  {
                    OFFSET 1.69225 -0.51767 -0.607171
                  }
                }
              }
            }
          }
        }
      }
    }
  }
  JOINT rButtock
  {
    OFFSET -8.77824 4.35084 1.2192
    CHANNELS 3 Zrotation Xrotation Yrotation
    JOINT rThigh
    {
      OFFSET 0 -1.70687 -2.19456
      CHANNELS 3 Zrotation Xrotation Yrotation
      JOINT rShin
      {
        OFFSET 0 -36.8199 0.73152
        CHANNELS 3 Zrotation Xrotation Yrotation
        JOINT rFoot
        {
          OFFSET 0.73152 -45.1104 -5.12064
          CHANNELS 3 Zrotation Xrotation Yrotation
          End Site
          {
            OFFSET -1.1221 -3.69964 12.103
          }
        }
      }
    }
  }
  JOINT lButtock
  {
    OFFSET 8.77824 4.35084 1.2192
    CHANNELS 3 Zrotation Xrotation Yrotation
    JOINT lThigh
    {
      OFFSET 0 -1.70687 -2.19456
      CHANNELS 3 Zrotation Xrotation Yrotation
      JOINT lShin
      {
        OFFSET 0 -36.8199 0.73152
        CHANNELS 3 Zrotation Xrotation Yrotation
        JOINT lFoot
        {
          OFFSET -0.73152 -45.1104 -5.12064
          CHANNELS 3 Zrotation Xrotation Yrotation
          End Site
          {
            OFFSET 1.1221 -3.69964 12.103
          }
        }
      }
    }
  }
}
MOTION
Frames:	5
Frame Time:	0.00833333
-141.618 84.0842 -0.661151 0.0 0.0 0.0 -1.54496 -0.00284633 -0.0420521 -0.425432 0.00110977 -0.0736766 -8.90724e-16 -7.95139e-16 -1.73937e-16 -2.77367e-15 3.18055e-15 -5.74612e-16 -0.0 0.0 0.0 -0.0 0.0 0.0 -3.49573e-16 -6.3285e-17 9.93923e-17 -8.35478e-15 -1.47225e-15 -1.19271e-15 -1.81938e-13 6.16232e-15 -1.90833e-14 -1.98868e-12 -2.92735e-13 -4.07111e-13 -4.71033e-12 -6.20066e-13 -8.90555e-13 -8.13785e-12 -1.07185e-12 -1.53382e-12 -4.70444e-12 -6.1822e-13 -8.96916e-13 7.73091 5.47488 0.417314 -4.7102e-12 -6.19612e-13 -8.87375e-13 2.90554 0.965183 0.102902 -4.70187e-12 -6.1991e-13 -8.81809e-13 10.2786 0.731801 0.0259123 -4.72233e-12 -6.17425e-13 -8.71472e-13 2.22167 -0.733487 -0.20892 -4.45592e-16 -6.3285e-17 -3.47873e-16 -1.19258e-14 -1.38528e-15 -2.5842e-15 -1.65439e-13 -1.02374e-13 -3.18055e-14 -2.00425e-12 -1.91156e-13 -3.53042e-13 -4.70518e-12 -6.36016e-13 -8.68291e-13 -8.11598e-12 -1.09729e-12 -1.50122e-12 -4.71199e-12 -6.33328e-13 -8.52389e-13 -7.73091 5.47488 -0.417314 -4.70449e-12 -6.3621e-13 -8.65111e-13 -2.90554 0.965183 -0.102902 -4.70706e-12 -6.36111e-13 -8.71472e-13 -10.2786 0.731801 -0.0259123 -4.70086e-12 -6.34918e-13 -8.77833e-13 -2.22167 -0.733487 0.20892 -2.03217e-16 0.0 -3.88251e-19 -0.63148 -1.92333 -0.00658916 -0.00945221 -2.07853 -0.0781747 -0.541051 3.99724 0.144583 2.03217e-16 0.0 3.88251e-19 -1.71417 -6.54909 0.158522 -0.00227308 6.30066 -0.0690936 0.559219 0.24395 -0.0686148
-137.729 82.7549 -6.48844 19.7599 89.5003 24.5816 -2.07419 -2.06437 -1.25516 0.306511 0.963414 -0.426081 2.13157 2.90027 0.800613 -1.96616 -2.47084 1.36432 -0.0 0.0 0.0 -0.0 0.0 0.0 6.80632e-16 -7.15956e-14 -2.90101e-15 22.7369 2.66259 1.07503 -1.96722 -0.676131 3.2684 0.0564445 5.27423 0.729949 -3.94041e-10 -1.8412e-10 2.79639e-10 -6.75881e-10 -3.20223e-10 4.88607e-10 -3.94033e-10 -1.8412e-10 2.79633e-10 7.73091 5.47488 0.417314 -3.94039e-10 -1.84122e-10 2.79641e-10 2.90554 0.965183 0.102902 -3.94032e-10 -1.84122e-10 2.79647e-10 10.2786 0.731801 0.0259123 -3.9405e-10 -1.84119e-10 2.79658e-10 2.22167 -0.733487 -0.20892 5.55601e-16 -7.15956e-14 -3.27917e-15 -23.0896 3.26445 -2.06028 1.56789 -0.506805 -2.62651 -0.0471813 4.82137 -0.668963 5.49486e-11 6.41512e-14 -4.39812e-10 8.83268e-11 9.24648e-13 -7.59863e-10 5.49439e-11 6.68417e-14 -4.39801e-10 -7.73091 5.47488 -0.417314 5.49489e-11 6.43866e-14 -4.39811e-10 -2.90554 0.965183 -0.102902 5.4946e-11 6.41553e-14 -4.39816e-10 -10.2786 0.731801 -0.0259123 5.49521e-11 6.54681e-14 -4.39821e-10 -2.22167 -0.733487 0.20892 -2.03217e-16 0.0 -3.88251e-19 -2.2745 -3.68018 1.28786 -0.00311207 3.5435 0.031269 -0.911307 0.391165 -4.72005 2.03217e-16 0.0 3.88251e-19 -0.495716 -8.75078 -1.0602 -0.0108389 12.5365 -0.180161 1.15271 -4.96123 4.2426
-137.743 82.7505 -6.47678 14.3337 89.4233 19.2232 -2.72937 -4.23869 -2.5441 1.09327 1.98255 -0.79939 4.30033 5.95315 1.65357 -3.92325 -5.06483 2.81305 -0.0 0.0 0.0 -0.0 0.0 0.0 1.89299e-15 -1.51716e-13 -7.90169e-15 46.6634 5.48665 2.22393 -3.96252 -1.38329 6.72403 -0.0324388 10.8503 1.52292 -8.03716e-10 -3.78951e-10 5.60265e-10 -1.3787e-09 -6.59141e-10 9.79205e-10 -8.03706e-10 -3.78954e-10 5.6026e-10 7.73091 5.47488 0.417314 -8.03713e-10 -3.78955e-10 5.60266e-10 2.90554 0.965183 0.102902 -8.03708e-10 -3.78955e-10 5.60272e-10 10.2786 0.731801 0.0259123 -8.03723e-10 -3.78952e-10 5.60285e-10 2.22167 -0.733487 -0.20892 1.73495e-15 -1.51716e-13 -8.20608e-15 -47.2418 6.69877 -4.26347 3.17559 -1.0393 -5.40491 0.0270475 9.91725 -1.39225 9.67357e-11 3.51157e-12 -8.96848e-10 1.53596e-10 7.7868e-12 -1.54916e-09 9.67334e-11 3.51432e-12 -8.96841e-10 -7.73091 5.47488 -0.417314 9.67356e-11 3.51231e-12 -8.96848e-10 -2.90554 0.965183 -0.102902 9.67325e-11 3.51167e-12 -8.96852e-10 -10.2786 0.731801 -0.0259123 9.67383e-11 3.51317e-12 -8.96855e-10 -2.22167 -0.733487 0.20892 -2.03217e-16 0.0 -3.88251e-19 -3.92471 -5.53313 2.66077 -0.0199548 9.48661 0.14884 -1.96563 -3.37013 -9.87461 2.03217e-16 0.0 3.88251e-19 0.690925 -11.0717 -2.35967 0.00788767 19.1282 -0.306252 2.64108 -10.3685 8.91352
-137.734 82.7534 -6.50764 10.1945 89.5351 15.0448 -3.39566 -6.17609 -3.70043 1.80595 2.88754 -1.13215 6.14924 8.69398 2.42666 -5.54329 -7.39565 4.12353 -0.0 0.0 0.0 -0.0 0.0 0.0 2.74104e-15 -2.1466e-13 -8.90182e-15 67.9086 7.97648 3.25312 -5.67137 -2.00201 9.81058 -0.247211 15.8122 2.26638 -1.1727e-09 -5.5112e-10 8.40698e-10 -2.01137e-09 -9.58525e-10 1.46889e-09 -1.17269e-09 -5.51124e-10 8.40693e-10 7.73091 5.47488 0.417314 -1.1727e-09 -5.51126e-10 8.40698e-10 2.90554 0.965183 0.102902 -1.17269e-09 -5.51126e-10 8.40704e-10 10.2786 0.731801 0.0259123 -1.17271e-09 -5.51122e-10 8.40718e-10 2.22167 -0.733487 -0.20892 2.55799e-15 -2.1466e-13 -9.14177e-15 -68.5572 9.74232 -6.26145 4.56472 -1.50764 -7.88197 0.205532 14.4561 -2.0652 1.74256e-10 1.46449e-12 -1.3177e-09 2.81212e-10 4.96852e-12 -2.27659e-09 1.74256e-10 1.46718e-12 -1.3177e-09 -7.73091 5.47488 -0.417314 1.74256e-10 1.46558e-12 -1.3177e-09 -2.90554 0.965183 -0.102902 1.74252e-10 1.46469e-12 -1.3177e-09 -10.2786 0.731801 -0.0259123 1.74258e-10 1.46624e-12 -1.31771e-09 -2.22167 -0.733487 0.20892 -2.03217e-16 0.0 -3.88251e-19 -5.32088 -7.18017 3.8994 -0.056266 14.7874 0.258434 -3.47732 -6.60045 -14.5468 2.03217e-16 0.0 3.88251e-19 1.65329 -13.1341 -3.55157 0.0519174 25.0076 -0.430616 4.73721 -15.0191 13.2787
-137.735 82.7522 -6.51244 -0.4007 89.5651 4.4511 -3.90372 -7.53195 -4.50717 2.30814 3.50761 -1.36234 7.37089 10.6611 2.97693 -6.56818 -9.08429 5.06018 -0.0 0.0 0.0 -0.0 0.0 0.0 2.67833e-15 -2.34666e-13 9.93923e-17 82.6689 9.64186 3.95544 -6.82587 -2.42469 11.9693 -0.477101 19.2488 2.81296 -1.43996e-09 -6.66632e-10 1.12065e-09 -2.46867e-09 -1.15907e-09 1.95629e-09 -1.43995e-09 -6.66636e-10 1.12064e-09 7.73091 5.47488 0.417314 -1.43996e-09 -6.66639e-10 1.12065e-09 2.90554 0.965183 0.102902 -1.43995e-09 -6.66638e-10 1.12065e-09 10.2786 0.731801 0.0259123 -1.43996e-09 -6.66635e-10 1.12067e-09 2.22167 -0.733487 -0.20892 2.49024e-15 -2.34666e-13 -9.93923e-17 -83.2862 11.8577 -7.66971 5.50554 -1.82783 -9.60333 0.3961 17.61 -2.55676 3.4111e-10 -1.43189e-11 -1.6481e-09 5.64694e-10 -2.20508e-11 -2.84932e-09 3.4111e-10 -1.43165e-11 -1.6481e-09 -7.73091 5.47488 -0.417314 3.41109e-10 -1.43178e-11 -1.6481e-09 -2.90554 0.965183 -0.102902 3.41105e-10 -1.43186e-11 -1.6481e-09 -10.2786 0.731801 -0.0259123 3.41111e-10 -1.43173e-11 -1.6481e-09 -2.22167 -0.733487 0.20892 -2.03217e-16 0.0 -3.88251e-19 -6.25077 -8.32466 4.78282 -0.0942882 18.4827 0.339121 -4.84888 -8.7349 -17.8872 2.03217e-16 0.0 3.88251e-19 2.25728 -14.5671 -4.43151 0.100333 29.1069 -0.526164 6.64266 -18.1147 16.4819
